# xmcd
#
# Track frame offsets: 
#        150
#        18129
#        38254
#        57457
#        75818
#        94388
#        116809
#        136735
#        153000
#        172140
#        191344
#        208810
#
# Disc length: 3077 seconds
#
# Revision: 0
# Processed by: cddbd v1.5.2PL0 Copyright (c) Steve Scherf et al.
# Submitted via: ExactAudioCopy v1.0b4
#
DISCID=8e0c030c
DTITLE=Tito and Tarantula - Lost Tarantism
DYEAR=2015
DGENRE=Blues Rock
TTITLE0=When To Let It Go
TTITLE1=Back To Mexico
TTITLE2=Jokes On Me
TTITLE3=Damn Good Day To Die
TTITLE4=Cry In The Night
TTITLE5=See You On The Way Down
TTITLE6=Navajo In A UFO
TTITLE7=Wild Love
TTITLE8=You Don't Scare Me
TTITLE9=Gimme Respect
TTITLE10=To Paradise
TTITLE11=In My Arms Tonight
EXTD=
EXTT0=
EXTT1=
EXTT2=
EXTT3=
EXTT4=
EXTT5=
EXTT6=
EXTT7=
EXTT8=
EXTT9=
EXTT10=
EXTT11=
PLAYORDER=
